<mxfile host="app.diagrams.net" modified="2024-04-22T14:28:38.624Z" agent="Mozilla/5.0 (Windows NT 10.0; Win64; x64) AppleWebKit/537.36 (KHTML, like Gecko) Chrome/124.0.0.0 Safari/537.36" etag="6ViSIyVGpcxHhrF712tw" version="24.2.7" type="device">
  <diagram id="6a731a19-8d31-9384-78a2-239565b7b9f0" name="Page-1">
    <mxGraphModel dx="1235" dy="1823" grid="1" gridSize="10" guides="1" tooltips="1" connect="1" arrows="1" fold="1" page="1" pageScale="1" pageWidth="827" pageHeight="1169" background="none" math="0" shadow="0">
      <root>
        <mxCell id="0" />
        <mxCell id="1" parent="0" />
        <mxCell id="Ruf-5wRdIl-tEysAjk05-2260" value="" style="swimlane;startSize=0;" parent="1" vertex="1">
          <mxGeometry y="-470" width="1010" height="580" as="geometry" />
        </mxCell>
        <mxCell id="Ruf-5wRdIl-tEysAjk05-2358" value="Subnet:ACL + VLAN" style="shape=mxgraph.ibm.box;prType=subnet;fontStyle=0;verticalAlign=top;align=left;spacingLeft=32;spacingTop=4;fillColor=#E6F0E2;rounded=0;whiteSpace=wrap;html=1;strokeColor=#00882B;strokeWidth=1;dashed=0;container=1;spacing=-4;collapsible=0;expand=0;recursiveResize=0;" parent="Ruf-5wRdIl-tEysAjk05-2260" vertex="1">
          <mxGeometry x="660" width="320" height="160" as="geometry" />
        </mxCell>
        <mxCell id="Ruf-5wRdIl-tEysAjk05-2324" value="WAP" style="image;html=1;image=img/lib/clip_art/networking/Wireless_Router_128x128.png" parent="Ruf-5wRdIl-tEysAjk05-2358" vertex="1">
          <mxGeometry x="157" y="80" width="40" height="50" as="geometry" />
        </mxCell>
        <mxCell id="Ruf-5wRdIl-tEysAjk05-2359" value="WAP" style="image;html=1;image=img/lib/clip_art/networking/Wireless_Router_128x128.png" parent="Ruf-5wRdIl-tEysAjk05-2358" vertex="1">
          <mxGeometry x="142" width="40" height="50" as="geometry" />
        </mxCell>
        <mxCell id="jAVi-AluYZ_63kVKPEiI-7" value="WAP" style="image;html=1;image=img/lib/clip_art/networking/Wireless_Router_128x128.png" parent="Ruf-5wRdIl-tEysAjk05-2358" vertex="1">
          <mxGeometry x="200" y="50" width="30" height="30" as="geometry" />
        </mxCell>
        <mxCell id="I4FsKrgE2dASxy1mWW6w-7" value="" style="verticalLabelPosition=bottom;verticalAlign=top;html=1;shape=mxgraph.basic.flash" parent="Ruf-5wRdIl-tEysAjk05-2358" vertex="1">
          <mxGeometry x="240" y="50" width="10" height="14" as="geometry" />
        </mxCell>
        <mxCell id="I4FsKrgE2dASxy1mWW6w-8" value="Mobile&amp;nbsp;&lt;div&gt;Phone&lt;/div&gt;" style="verticalLabelPosition=bottom;sketch=0;aspect=fixed;html=1;verticalAlign=top;strokeColor=none;align=center;outlineConnect=0;shape=mxgraph.citrix.cell_phone;" parent="Ruf-5wRdIl-tEysAjk05-2358" vertex="1">
          <mxGeometry x="270" y="28" width="15" height="36" as="geometry" />
        </mxCell>
        <mxCell id="Ruf-5wRdIl-tEysAjk05-2357" value="Subnet:ACL + VLAN" style="shape=mxgraph.ibm.box;prType=subnet;fontStyle=0;verticalAlign=top;align=left;spacingLeft=32;spacingTop=4;fillColor=#E6F0E2;rounded=0;whiteSpace=wrap;html=1;strokeColor=#00882B;strokeWidth=1;dashed=0;container=1;spacing=-4;collapsible=0;expand=0;recursiveResize=0;" parent="Ruf-5wRdIl-tEysAjk05-2260" vertex="1">
          <mxGeometry x="350" y="-9" width="260" height="169" as="geometry" />
        </mxCell>
        <mxCell id="jAVi-AluYZ_63kVKPEiI-1" value="WAP" style="image;html=1;image=img/lib/clip_art/networking/Wireless_Router_128x128.png" parent="Ruf-5wRdIl-tEysAjk05-2357" vertex="1">
          <mxGeometry x="180" y="12" width="30" height="30" as="geometry" />
        </mxCell>
        <mxCell id="jAVi-AluYZ_63kVKPEiI-3" value="WAP" style="image;html=1;image=img/lib/clip_art/networking/Wireless_Router_128x128.png" parent="Ruf-5wRdIl-tEysAjk05-2357" vertex="1">
          <mxGeometry x="54" y="92" width="30" height="30" as="geometry" />
        </mxCell>
        <mxCell id="I4FsKrgE2dASxy1mWW6w-9" value="" style="verticalLabelPosition=bottom;verticalAlign=top;html=1;shape=mxgraph.basic.flash" parent="Ruf-5wRdIl-tEysAjk05-2357" vertex="1">
          <mxGeometry x="40" y="100" width="10" height="14" as="geometry" />
        </mxCell>
        <mxCell id="I4FsKrgE2dASxy1mWW6w-10" value="Mobile&amp;nbsp;&lt;div&gt;Phone&lt;/div&gt;" style="verticalLabelPosition=bottom;sketch=0;aspect=fixed;html=1;verticalAlign=top;strokeColor=none;align=center;outlineConnect=0;shape=mxgraph.citrix.cell_phone;" parent="Ruf-5wRdIl-tEysAjk05-2357" vertex="1">
          <mxGeometry x="20" y="78" width="15" height="36" as="geometry" />
        </mxCell>
        <mxCell id="Ruf-5wRdIl-tEysAjk05-2356" value="Subnet:ACL + VLAN" style="shape=mxgraph.ibm.box;prType=subnet;fontStyle=0;verticalAlign=top;align=left;spacingLeft=32;spacingTop=4;fillColor=#E6F0E2;rounded=0;whiteSpace=wrap;html=1;strokeColor=#00882B;strokeWidth=1;dashed=0;container=1;spacing=-4;collapsible=0;expand=0;recursiveResize=0;" parent="Ruf-5wRdIl-tEysAjk05-2260" vertex="1">
          <mxGeometry x="700" y="200" width="290" height="300" as="geometry" />
        </mxCell>
        <mxCell id="eKiNkDySMWKCnOwZtBc8-1" value="Sales Switch" style="shape=mxgraph.cisco.switches.atm_fast_gigabit_etherswitch;sketch=0;html=1;pointerEvents=1;dashed=0;fillColor=#036897;strokeColor=#ffffff;strokeWidth=2;verticalLabelPosition=bottom;verticalAlign=top;align=center;outlineConnect=0;" vertex="1" parent="Ruf-5wRdIl-tEysAjk05-2356">
          <mxGeometry x="190" y="28" width="64" height="64" as="geometry" />
        </mxCell>
        <mxCell id="Ruf-5wRdIl-tEysAjk05-2304" value="Sales PC" style="shape=mxgraph.cisco.computers_and_peripherals.pc;sketch=0;html=1;pointerEvents=1;dashed=0;fillColor=#036897;strokeColor=#ffffff;strokeWidth=2;verticalLabelPosition=bottom;verticalAlign=top;align=center;outlineConnect=0;" parent="Ruf-5wRdIl-tEysAjk05-2356" vertex="1">
          <mxGeometry x="-8" y="119" width="78" height="70" as="geometry" />
        </mxCell>
        <mxCell id="Ruf-5wRdIl-tEysAjk05-2320" value="NAS" style="sketch=0;pointerEvents=1;shadow=0;dashed=0;html=1;strokeColor=none;fillColor=#005F4B;labelPosition=center;verticalLabelPosition=bottom;verticalAlign=top;align=center;outlineConnect=0;shape=mxgraph.veeam2.nas;" parent="Ruf-5wRdIl-tEysAjk05-2356" vertex="1">
          <mxGeometry x="42" y="220" width="28.000000000000004" height="28.000000000000004" as="geometry" />
        </mxCell>
        <mxCell id="Ruf-5wRdIl-tEysAjk05-2305" value="Sales Printer" style="shape=mxgraph.cisco.computers_and_peripherals.printer;sketch=0;html=1;pointerEvents=1;dashed=0;fillColor=#036897;strokeColor=#ffffff;strokeWidth=2;verticalLabelPosition=bottom;verticalAlign=top;align=center;outlineConnect=0;" parent="Ruf-5wRdIl-tEysAjk05-2356" vertex="1">
          <mxGeometry x="80" y="186" width="91" height="34" as="geometry" />
        </mxCell>
        <mxCell id="eKiNkDySMWKCnOwZtBc8-3" value="Sales PC" style="shape=mxgraph.cisco.computers_and_peripherals.pc;sketch=0;html=1;pointerEvents=1;dashed=0;fillColor=#036897;strokeColor=#ffffff;strokeWidth=2;verticalLabelPosition=bottom;verticalAlign=top;align=center;outlineConnect=0;" vertex="1" parent="Ruf-5wRdIl-tEysAjk05-2356">
          <mxGeometry x="212" y="150" width="78" height="70" as="geometry" />
        </mxCell>
        <mxCell id="eKiNkDySMWKCnOwZtBc8-4" value="" style="endArrow=classic;startArrow=classic;html=1;rounded=0;fontSize=12;startSize=8;endSize=8;curved=1;entryX=0.895;entryY=0.82;entryDx=0;entryDy=0;entryPerimeter=0;" edge="1" parent="Ruf-5wRdIl-tEysAjk05-2356" source="eKiNkDySMWKCnOwZtBc8-3" target="eKiNkDySMWKCnOwZtBc8-1">
          <mxGeometry width="50" height="50" relative="1" as="geometry">
            <mxPoint x="41" y="129" as="sourcePoint" />
            <mxPoint x="80" y="100" as="targetPoint" />
          </mxGeometry>
        </mxCell>
        <mxCell id="eKiNkDySMWKCnOwZtBc8-5" value="Sales Printer" style="shape=mxgraph.cisco.computers_and_peripherals.printer;sketch=0;html=1;pointerEvents=1;dashed=0;fillColor=#036897;strokeColor=#ffffff;strokeWidth=2;verticalLabelPosition=bottom;verticalAlign=top;align=center;outlineConnect=0;" vertex="1" parent="Ruf-5wRdIl-tEysAjk05-2356">
          <mxGeometry x="130" y="133" width="91" height="34" as="geometry" />
        </mxCell>
        <mxCell id="eKiNkDySMWKCnOwZtBc8-6" value="" style="endArrow=classic;startArrow=classic;html=1;rounded=0;fontSize=12;startSize=8;endSize=8;curved=1;entryX=0;entryY=1;entryDx=0;entryDy=0;entryPerimeter=0;exitX=0.5;exitY=0;exitDx=0;exitDy=0;exitPerimeter=0;" edge="1" parent="Ruf-5wRdIl-tEysAjk05-2356" source="eKiNkDySMWKCnOwZtBc8-5" target="eKiNkDySMWKCnOwZtBc8-1">
          <mxGeometry width="50" height="50" relative="1" as="geometry">
            <mxPoint x="260" y="160" as="sourcePoint" />
            <mxPoint x="257" y="90" as="targetPoint" />
          </mxGeometry>
        </mxCell>
        <mxCell id="Ruf-5wRdIl-tEysAjk05-2355" value="Subnet:ACL + VLAN&amp;nbsp;" style="shape=mxgraph.ibm.box;prType=subnet;fontStyle=0;verticalAlign=top;align=left;spacingLeft=32;spacingTop=4;fillColor=#E6F0E2;rounded=0;whiteSpace=wrap;html=1;strokeColor=#00882B;strokeWidth=1;dashed=0;container=1;spacing=-4;collapsible=0;expand=0;recursiveResize=0;" parent="Ruf-5wRdIl-tEysAjk05-2260" vertex="1">
          <mxGeometry x="340" y="370" width="323" height="190" as="geometry" />
        </mxCell>
        <mxCell id="Ruf-5wRdIl-tEysAjk05-2307" value="Admin PC" style="shape=mxgraph.cisco.computers_and_peripherals.pc;sketch=0;html=1;pointerEvents=1;dashed=0;fillColor=#036897;strokeColor=#ffffff;strokeWidth=2;verticalLabelPosition=bottom;verticalAlign=top;align=center;outlineConnect=0;" parent="Ruf-5wRdIl-tEysAjk05-2355" vertex="1">
          <mxGeometry x="10" y="70" width="78" height="70" as="geometry" />
        </mxCell>
        <mxCell id="Ruf-5wRdIl-tEysAjk05-2274" value="Admin Switch" style="shape=mxgraph.cisco.switches.atm_fast_gigabit_etherswitch;sketch=0;html=1;pointerEvents=1;dashed=0;fillColor=#036897;strokeColor=#ffffff;strokeWidth=2;verticalLabelPosition=bottom;verticalAlign=top;align=center;outlineConnect=0;" parent="Ruf-5wRdIl-tEysAjk05-2355" vertex="1">
          <mxGeometry x="141.5" y="10" width="64" height="64" as="geometry" />
        </mxCell>
        <mxCell id="Ruf-5wRdIl-tEysAjk05-2311" value="" style="endArrow=classic;startArrow=classic;html=1;rounded=0;fontSize=12;startSize=8;endSize=8;curved=1;exitX=0.5;exitY=0;exitDx=0;exitDy=0;exitPerimeter=0;entryX=0;entryY=1;entryDx=0;entryDy=0;entryPerimeter=0;" parent="Ruf-5wRdIl-tEysAjk05-2355" source="Ruf-5wRdIl-tEysAjk05-2307" target="Ruf-5wRdIl-tEysAjk05-2274" edge="1">
          <mxGeometry width="50" height="50" relative="1" as="geometry">
            <mxPoint x="390" y="-7" as="sourcePoint" />
            <mxPoint x="440" y="-57" as="targetPoint" />
          </mxGeometry>
        </mxCell>
        <mxCell id="Ruf-5wRdIl-tEysAjk05-2318" value="NAS" style="sketch=0;pointerEvents=1;shadow=0;dashed=0;html=1;strokeColor=none;fillColor=#005F4B;labelPosition=center;verticalLabelPosition=bottom;verticalAlign=top;align=center;outlineConnect=0;shape=mxgraph.veeam2.nas;" parent="Ruf-5wRdIl-tEysAjk05-2355" vertex="1">
          <mxGeometry x="147.5" y="120" width="28.000000000000004" height="28.000000000000004" as="geometry" />
        </mxCell>
        <mxCell id="Ruf-5wRdIl-tEysAjk05-2319" value="" style="endArrow=classic;startArrow=classic;html=1;rounded=0;fontSize=12;startSize=8;endSize=8;curved=1;entryX=0.5;entryY=1;entryDx=0;entryDy=0;entryPerimeter=0;" parent="Ruf-5wRdIl-tEysAjk05-2355" source="Ruf-5wRdIl-tEysAjk05-2318" target="Ruf-5wRdIl-tEysAjk05-2274" edge="1">
          <mxGeometry width="50" height="50" relative="1" as="geometry">
            <mxPoint x="410" y="-57" as="sourcePoint" />
            <mxPoint x="460" y="-107" as="targetPoint" />
          </mxGeometry>
        </mxCell>
        <mxCell id="Ruf-5wRdIl-tEysAjk05-2308" value="Admin Printer" style="shape=mxgraph.cisco.computers_and_peripherals.printer;sketch=0;html=1;pointerEvents=1;dashed=0;fillColor=#036897;strokeColor=#ffffff;strokeWidth=2;verticalLabelPosition=bottom;verticalAlign=top;align=center;outlineConnect=0;" parent="Ruf-5wRdIl-tEysAjk05-2355" vertex="1">
          <mxGeometry x="209" y="96" width="91" height="34" as="geometry" />
        </mxCell>
        <mxCell id="Ruf-5wRdIl-tEysAjk05-2312" value="" style="endArrow=classic;startArrow=classic;html=1;rounded=0;fontSize=12;startSize=8;endSize=8;curved=1;exitX=0.5;exitY=0;exitDx=0;exitDy=0;exitPerimeter=0;entryX=0.895;entryY=0.82;entryDx=0;entryDy=0;entryPerimeter=0;" parent="Ruf-5wRdIl-tEysAjk05-2355" source="Ruf-5wRdIl-tEysAjk05-2308" target="Ruf-5wRdIl-tEysAjk05-2274" edge="1">
          <mxGeometry width="50" height="50" relative="1" as="geometry">
            <mxPoint x="390" y="-7" as="sourcePoint" />
            <mxPoint x="440" y="-57" as="targetPoint" />
          </mxGeometry>
        </mxCell>
        <mxCell id="Ruf-5wRdIl-tEysAjk05-2261" value="Router with VPN" style="shape=mxgraph.cisco.routers.router;sketch=0;html=1;pointerEvents=1;dashed=0;fillColor=#036897;strokeColor=#ffffff;strokeWidth=2;verticalLabelPosition=bottom;verticalAlign=top;align=center;outlineConnect=0;" parent="Ruf-5wRdIl-tEysAjk05-2260" vertex="1">
          <mxGeometry x="446" y="239" width="78" height="53" as="geometry" />
        </mxCell>
        <mxCell id="Ruf-5wRdIl-tEysAjk05-2266" value="Sales Switch" style="shape=mxgraph.cisco.switches.atm_fast_gigabit_etherswitch;sketch=0;html=1;pointerEvents=1;dashed=0;fillColor=#036897;strokeColor=#ffffff;strokeWidth=2;verticalLabelPosition=bottom;verticalAlign=top;align=center;outlineConnect=0;" parent="Ruf-5wRdIl-tEysAjk05-2260" vertex="1">
          <mxGeometry x="770" y="226" width="64" height="64" as="geometry" />
        </mxCell>
        <mxCell id="Ruf-5wRdIl-tEysAjk05-2270" value="Employee wifi switch&amp;nbsp;&lt;div&gt;(SSID Masking)&lt;/div&gt;" style="shape=mxgraph.cisco.switches.atm_fast_gigabit_etherswitch;sketch=0;html=1;pointerEvents=1;dashed=0;fillColor=#036897;strokeColor=#ffffff;strokeWidth=2;verticalLabelPosition=bottom;verticalAlign=top;align=center;outlineConnect=0;" parent="Ruf-5wRdIl-tEysAjk05-2260" vertex="1">
          <mxGeometry x="706" y="60" width="64" height="64" as="geometry" />
        </mxCell>
        <mxCell id="Ruf-5wRdIl-tEysAjk05-2278" value="Internet" style="ellipse;shape=cloud;whiteSpace=wrap;html=1;" parent="Ruf-5wRdIl-tEysAjk05-2260" vertex="1">
          <mxGeometry x="70" y="-9" width="120" height="80" as="geometry" />
        </mxCell>
        <mxCell id="Ruf-5wRdIl-tEysAjk05-2279" value="" style="endArrow=none;html=1;rounded=0;fontSize=12;startSize=8;endSize=8;curved=1;entryX=0.96;entryY=0.7;entryDx=0;entryDy=0;entryPerimeter=0;exitX=0;exitY=0.5;exitDx=0;exitDy=0;exitPerimeter=0;" parent="Ruf-5wRdIl-tEysAjk05-2260" source="Ruf-5wRdIl-tEysAjk05-2348" target="Ruf-5wRdIl-tEysAjk05-2278" edge="1">
          <mxGeometry width="50" height="50" relative="1" as="geometry">
            <mxPoint x="410" y="330" as="sourcePoint" />
            <mxPoint x="460" y="280" as="targetPoint" />
          </mxGeometry>
        </mxCell>
        <mxCell id="Ruf-5wRdIl-tEysAjk05-2286" value="" style="endArrow=classic;startArrow=classic;html=1;rounded=0;fontSize=12;startSize=8;endSize=8;curved=1;exitX=0.5;exitY=0;exitDx=0;exitDy=0;exitPerimeter=0;entryX=0.5;entryY=1;entryDx=0;entryDy=0;entryPerimeter=0;" parent="Ruf-5wRdIl-tEysAjk05-2260" source="Ruf-5wRdIl-tEysAjk05-2274" target="Ruf-5wRdIl-tEysAjk05-2261" edge="1">
          <mxGeometry width="50" height="50" relative="1" as="geometry">
            <mxPoint x="407" y="360" as="sourcePoint" />
            <mxPoint x="673" y="347" as="targetPoint" />
          </mxGeometry>
        </mxCell>
        <mxCell id="Ruf-5wRdIl-tEysAjk05-2290" value="" style="endArrow=classic;startArrow=classic;html=1;rounded=0;fontSize=12;startSize=8;endSize=8;curved=1;exitX=1;exitY=0.5;exitDx=0;exitDy=0;exitPerimeter=0;entryX=0;entryY=0.5;entryDx=0;entryDy=0;entryPerimeter=0;" parent="Ruf-5wRdIl-tEysAjk05-2260" source="Ruf-5wRdIl-tEysAjk05-2261" target="Ruf-5wRdIl-tEysAjk05-2266" edge="1">
          <mxGeometry width="50" height="50" relative="1" as="geometry">
            <mxPoint x="234" y="270" as="sourcePoint" />
            <mxPoint x="500" y="257" as="targetPoint" />
          </mxGeometry>
        </mxCell>
        <mxCell id="Ruf-5wRdIl-tEysAjk05-2301" value="Guest WIfi switch" style="shape=mxgraph.cisco.switches.atm_fast_gigabit_etherswitch;sketch=0;html=1;pointerEvents=1;dashed=0;fillColor=#036897;strokeColor=#ffffff;strokeWidth=2;verticalLabelPosition=bottom;verticalAlign=top;align=center;outlineConnect=0;" parent="Ruf-5wRdIl-tEysAjk05-2260" vertex="1">
          <mxGeometry x="460" y="46" width="64" height="64" as="geometry" />
        </mxCell>
        <mxCell id="Ruf-5wRdIl-tEysAjk05-2302" value="" style="endArrow=classic;startArrow=classic;html=1;rounded=0;fontSize=12;startSize=8;endSize=8;curved=1;entryX=0.5;entryY=1;entryDx=0;entryDy=0;entryPerimeter=0;exitX=0;exitY=0.5;exitDx=0;exitDy=0;exitPerimeter=0;" parent="Ruf-5wRdIl-tEysAjk05-2260" source="I4FsKrgE2dASxy1mWW6w-1" target="Ruf-5wRdIl-tEysAjk05-2301" edge="1">
          <mxGeometry width="50" height="50" relative="1" as="geometry">
            <mxPoint x="533.3599999999999" y="175.29999999999995" as="sourcePoint" />
            <mxPoint x="550" y="320" as="targetPoint" />
          </mxGeometry>
        </mxCell>
        <mxCell id="Ruf-5wRdIl-tEysAjk05-2303" value="" style="endArrow=classic;startArrow=classic;html=1;rounded=0;fontSize=12;startSize=8;endSize=8;curved=1;entryX=0;entryY=1;entryDx=0;entryDy=0;entryPerimeter=0;exitX=0.5;exitY=0;exitDx=0;exitDy=0;exitPerimeter=0;" parent="Ruf-5wRdIl-tEysAjk05-2260" source="Ruf-5wRdIl-tEysAjk05-2304" target="Ruf-5wRdIl-tEysAjk05-2266" edge="1">
          <mxGeometry width="50" height="50" relative="1" as="geometry">
            <mxPoint x="500" y="370" as="sourcePoint" />
            <mxPoint x="550" y="320" as="targetPoint" />
          </mxGeometry>
        </mxCell>
        <mxCell id="Ruf-5wRdIl-tEysAjk05-2306" value="" style="endArrow=classic;startArrow=classic;html=1;rounded=0;fontSize=12;startSize=8;endSize=8;curved=1;entryX=0.895;entryY=0.82;entryDx=0;entryDy=0;entryPerimeter=0;exitX=0.08;exitY=0;exitDx=0;exitDy=0;exitPerimeter=0;" parent="Ruf-5wRdIl-tEysAjk05-2260" source="Ruf-5wRdIl-tEysAjk05-2305" target="Ruf-5wRdIl-tEysAjk05-2266" edge="1">
          <mxGeometry width="50" height="50" relative="1" as="geometry">
            <mxPoint x="500" y="370" as="sourcePoint" />
            <mxPoint x="550" y="320" as="targetPoint" />
          </mxGeometry>
        </mxCell>
        <mxCell id="Ruf-5wRdIl-tEysAjk05-2313" value="Backup UPS" style="sketch=0;points=[[0.015,0.015,0],[0.985,0.015,0],[0.985,0.985,0],[0.015,0.985,0],[0.25,0,0],[0.5,0,0],[0.75,0,0],[1,0.25,0],[1,0.5,0],[1,0.75,0],[0.75,1,0],[0.5,1,0],[0.25,1,0],[0,0.75,0],[0,0.5,0],[0,0.25,0]];verticalLabelPosition=bottom;html=1;verticalAlign=top;aspect=fixed;align=center;pointerEvents=1;shape=mxgraph.cisco19.rect;prIcon=ups;fillColor=#FAFAFA;strokeColor=#005073;" parent="Ruf-5wRdIl-tEysAjk05-2260" vertex="1">
          <mxGeometry x="290" y="290" width="50" height="50" as="geometry" />
        </mxCell>
        <mxCell id="Ruf-5wRdIl-tEysAjk05-2315" value="" style="endArrow=none;dashed=1;html=1;dashPattern=1 3;strokeWidth=2;rounded=0;fontSize=12;startSize=8;endSize=8;curved=1;exitX=0.985;exitY=0.015;exitDx=0;exitDy=0;exitPerimeter=0;entryX=0.12;entryY=0.9;entryDx=0;entryDy=0;entryPerimeter=0;" parent="Ruf-5wRdIl-tEysAjk05-2260" source="Ruf-5wRdIl-tEysAjk05-2313" target="Ruf-5wRdIl-tEysAjk05-2261" edge="1">
          <mxGeometry width="50" height="50" relative="1" as="geometry">
            <mxPoint x="490" y="310" as="sourcePoint" />
            <mxPoint x="540" y="260" as="targetPoint" />
          </mxGeometry>
        </mxCell>
        <mxCell id="Ruf-5wRdIl-tEysAjk05-2316" value="" style="endArrow=none;dashed=1;html=1;dashPattern=1 3;strokeWidth=2;rounded=0;fontSize=12;startSize=8;endSize=8;curved=1;exitX=0.985;exitY=0.985;exitDx=0;exitDy=0;exitPerimeter=0;" parent="Ruf-5wRdIl-tEysAjk05-2260" source="Ruf-5wRdIl-tEysAjk05-2313" target="Ruf-5wRdIl-tEysAjk05-2274" edge="1">
          <mxGeometry width="50" height="50" relative="1" as="geometry">
            <mxPoint x="490" y="310" as="sourcePoint" />
            <mxPoint x="540" y="260" as="targetPoint" />
          </mxGeometry>
        </mxCell>
        <mxCell id="Ruf-5wRdIl-tEysAjk05-2317" value="" style="endArrow=none;dashed=1;html=1;dashPattern=1 3;strokeWidth=2;rounded=0;fontSize=12;startSize=8;endSize=8;curved=1;exitX=0.985;exitY=0.015;exitDx=0;exitDy=0;exitPerimeter=0;entryX=0;entryY=1;entryDx=0;entryDy=0;entryPerimeter=0;" parent="Ruf-5wRdIl-tEysAjk05-2260" source="Ruf-5wRdIl-tEysAjk05-2313" target="Ruf-5wRdIl-tEysAjk05-2266" edge="1">
          <mxGeometry width="50" height="50" relative="1" as="geometry">
            <mxPoint x="490" y="310" as="sourcePoint" />
            <mxPoint x="540" y="260" as="targetPoint" />
          </mxGeometry>
        </mxCell>
        <mxCell id="Ruf-5wRdIl-tEysAjk05-2321" value="" style="endArrow=classic;startArrow=classic;html=1;rounded=0;fontSize=12;startSize=8;endSize=8;curved=1;exitX=0.5;exitY=1;exitDx=0;exitDy=0;exitPerimeter=0;" parent="Ruf-5wRdIl-tEysAjk05-2260" source="Ruf-5wRdIl-tEysAjk05-2266" target="Ruf-5wRdIl-tEysAjk05-2320" edge="1">
          <mxGeometry width="50" height="50" relative="1" as="geometry">
            <mxPoint x="510" y="380" as="sourcePoint" />
            <mxPoint x="560" y="330" as="targetPoint" />
          </mxGeometry>
        </mxCell>
        <mxCell id="Ruf-5wRdIl-tEysAjk05-2325" value="" style="endArrow=classic;startArrow=classic;html=1;rounded=0;fontSize=12;startSize=8;endSize=8;curved=1;entryX=0;entryY=0.5;entryDx=0;entryDy=0;exitX=0.895;exitY=0.82;exitDx=0;exitDy=0;exitPerimeter=0;" parent="Ruf-5wRdIl-tEysAjk05-2260" source="Ruf-5wRdIl-tEysAjk05-2270" target="Ruf-5wRdIl-tEysAjk05-2324" edge="1">
          <mxGeometry width="50" height="50" relative="1" as="geometry">
            <mxPoint x="510" y="380" as="sourcePoint" />
            <mxPoint x="560" y="330" as="targetPoint" />
          </mxGeometry>
        </mxCell>
        <mxCell id="Ruf-5wRdIl-tEysAjk05-2326" value="" style="endArrow=classic;startArrow=classic;html=1;rounded=0;fontSize=12;startSize=8;endSize=8;curved=1;entryX=0;entryY=0.5;entryDx=0;entryDy=0;exitX=1;exitY=0.5;exitDx=0;exitDy=0;exitPerimeter=0;" parent="Ruf-5wRdIl-tEysAjk05-2260" source="Ruf-5wRdIl-tEysAjk05-2270" edge="1">
          <mxGeometry width="50" height="50" relative="1" as="geometry">
            <mxPoint x="510" y="380" as="sourcePoint" />
            <mxPoint x="803" y="31" as="targetPoint" />
          </mxGeometry>
        </mxCell>
        <mxCell id="Ruf-5wRdIl-tEysAjk05-2327" value="WAP" style="image;html=1;image=img/lib/clip_art/networking/Wireless_Router_128x128.png" parent="Ruf-5wRdIl-tEysAjk05-2260" vertex="1">
          <mxGeometry x="408" y="16" width="30" height="30" as="geometry" />
        </mxCell>
        <mxCell id="Ruf-5wRdIl-tEysAjk05-2328" value="" style="endArrow=classic;startArrow=classic;html=1;rounded=0;fontSize=12;startSize=8;endSize=8;curved=1;entryX=0.5;entryY=1;entryDx=0;entryDy=0;" parent="Ruf-5wRdIl-tEysAjk05-2260" source="Ruf-5wRdIl-tEysAjk05-2301" target="Ruf-5wRdIl-tEysAjk05-2327" edge="1">
          <mxGeometry width="50" height="50" relative="1" as="geometry">
            <mxPoint x="510" y="380" as="sourcePoint" />
            <mxPoint x="560" y="330" as="targetPoint" />
          </mxGeometry>
        </mxCell>
        <mxCell id="Ruf-5wRdIl-tEysAjk05-2339" value="" style="endArrow=classic;startArrow=classic;html=1;rounded=0;fontSize=12;startSize=8;endSize=8;curved=1;exitX=0.5;exitY=1;exitDx=0;exitDy=0;exitPerimeter=0;entryX=0.895;entryY=0.82;entryDx=0;entryDy=0;entryPerimeter=0;" parent="Ruf-5wRdIl-tEysAjk05-2260" source="Ruf-5wRdIl-tEysAjk05-2270" target="I4FsKrgE2dASxy1mWW6w-1" edge="1">
          <mxGeometry width="50" height="50" relative="1" as="geometry">
            <mxPoint x="958" y="4" as="sourcePoint" />
            <mxPoint x="592.6400000000001" y="175.29999999999995" as="targetPoint" />
          </mxGeometry>
        </mxCell>
        <mxCell id="Ruf-5wRdIl-tEysAjk05-2348" value="UTM Firewall with ACL,&lt;div&gt;antivirus + web filtering&lt;/div&gt;" style="image;html=1;image=img/lib/clip_art/networking/Firewall_02_128x128.png" parent="Ruf-5wRdIl-tEysAjk05-2260" vertex="1">
          <mxGeometry x="250" y="80" width="80" height="80" as="geometry" />
        </mxCell>
        <mxCell id="Ruf-5wRdIl-tEysAjk05-2349" value="" style="endArrow=none;html=1;rounded=0;fontSize=12;startSize=8;endSize=8;curved=1;entryX=0.96;entryY=0.7;entryDx=0;entryDy=0;entryPerimeter=0;exitX=0;exitY=0.5;exitDx=0;exitDy=0;exitPerimeter=0;" parent="Ruf-5wRdIl-tEysAjk05-2260" source="Ruf-5wRdIl-tEysAjk05-2362" target="Ruf-5wRdIl-tEysAjk05-2348" edge="1">
          <mxGeometry width="50" height="50" relative="1" as="geometry">
            <mxPoint x="680" y="77" as="sourcePoint" />
            <mxPoint x="365" y="-64" as="targetPoint" />
          </mxGeometry>
        </mxCell>
        <mxCell id="Ruf-5wRdIl-tEysAjk05-2350" value="" style="shape=link;html=1;rounded=0;fontSize=12;startSize=8;endSize=8;curved=1;entryX=0.13;entryY=0.77;entryDx=0;entryDy=0;entryPerimeter=0;" parent="Ruf-5wRdIl-tEysAjk05-2260" source="Ruf-5wRdIl-tEysAjk05-2351" target="Ruf-5wRdIl-tEysAjk05-2278" edge="1">
          <mxGeometry width="100" relative="1" as="geometry">
            <mxPoint x="490" y="350" as="sourcePoint" />
            <mxPoint x="590" y="350" as="targetPoint" />
          </mxGeometry>
        </mxCell>
        <mxCell id="Ruf-5wRdIl-tEysAjk05-2352" value="VPN tunnel" style="edgeLabel;html=1;align=center;verticalAlign=middle;resizable=0;points=[];fontSize=12;" parent="Ruf-5wRdIl-tEysAjk05-2350" vertex="1" connectable="0">
          <mxGeometry x="-0.1417" y="-2" relative="1" as="geometry">
            <mxPoint as="offset" />
          </mxGeometry>
        </mxCell>
        <mxCell id="Ruf-5wRdIl-tEysAjk05-2351" value="VPN Remote&amp;nbsp;&lt;div&gt;Connectivity&lt;/div&gt;" style="shape=mxgraph.cisco.computers_and_peripherals.pc;html=1;pointerEvents=1;dashed=0;fillColor=#036897;strokeColor=#ffffff;strokeWidth=2;verticalLabelPosition=bottom;verticalAlign=top;align=center;outlineConnect=0;" parent="Ruf-5wRdIl-tEysAjk05-2260" vertex="1">
          <mxGeometry x="10" y="90" width="78" height="70" as="geometry" />
        </mxCell>
        <mxCell id="Ruf-5wRdIl-tEysAjk05-2353" value="" style="endArrow=none;dashed=1;html=1;dashPattern=1 3;strokeWidth=2;rounded=0;fontSize=12;startSize=8;endSize=8;curved=1;entryX=0.75;entryY=1;entryDx=0;entryDy=0;exitX=0.015;exitY=0.015;exitDx=0;exitDy=0;exitPerimeter=0;" parent="Ruf-5wRdIl-tEysAjk05-2260" source="Ruf-5wRdIl-tEysAjk05-2313" target="Ruf-5wRdIl-tEysAjk05-2348" edge="1">
          <mxGeometry width="50" height="50" relative="1" as="geometry">
            <mxPoint x="520" y="380" as="sourcePoint" />
            <mxPoint x="570" y="330" as="targetPoint" />
          </mxGeometry>
        </mxCell>
        <mxCell id="Ruf-5wRdIl-tEysAjk05-2354" value="Subnet:ACL + VLAN&amp;nbsp;" style="shape=mxgraph.ibm.box;prType=subnet;fontStyle=0;verticalAlign=top;align=left;spacingLeft=32;spacingTop=4;fillColor=#E6F0E2;rounded=0;whiteSpace=wrap;html=1;strokeColor=#00882B;strokeWidth=1;dashed=0;container=1;spacing=-4;collapsible=0;expand=0;recursiveResize=0;" parent="Ruf-5wRdIl-tEysAjk05-2260" vertex="1">
          <mxGeometry x="10" y="220" width="240" height="180" as="geometry" />
        </mxCell>
        <mxCell id="Ruf-5wRdIl-tEysAjk05-2329" value="Servers" style="image;html=1;image=img/lib/clip_art/computers/Server_Rack_128x128.png" parent="Ruf-5wRdIl-tEysAjk05-2354" vertex="1">
          <mxGeometry x="20" y="19" width="80" height="80" as="geometry" />
        </mxCell>
        <mxCell id="Ruf-5wRdIl-tEysAjk05-2262" value="&amp;nbsp;&lt;span style=&quot;background-color: initial;&quot;&gt;Server Switch&lt;/span&gt;" style="shape=mxgraph.cisco.switches.atm_fast_gigabit_etherswitch;sketch=0;html=1;pointerEvents=1;dashed=0;fillColor=#036897;strokeColor=#ffffff;strokeWidth=2;verticalLabelPosition=bottom;verticalAlign=top;align=center;outlineConnect=0;" parent="Ruf-5wRdIl-tEysAjk05-2354" vertex="1">
          <mxGeometry x="130" y="19" width="64" height="64" as="geometry" />
        </mxCell>
        <mxCell id="Ruf-5wRdIl-tEysAjk05-2331" value="" style="endArrow=classic;startArrow=classic;html=1;rounded=0;fontSize=12;startSize=8;endSize=8;curved=1;exitX=1;exitY=1;exitDx=0;exitDy=0;" parent="Ruf-5wRdIl-tEysAjk05-2354" source="Ruf-5wRdIl-tEysAjk05-2329" target="Ruf-5wRdIl-tEysAjk05-2262" edge="1">
          <mxGeometry width="50" height="50" relative="1" as="geometry">
            <mxPoint x="530" y="-21" as="sourcePoint" />
            <mxPoint x="580" y="-71" as="targetPoint" />
          </mxGeometry>
        </mxCell>
        <mxCell id="Ruf-5wRdIl-tEysAjk05-2284" value="" style="endArrow=classic;startArrow=classic;html=1;rounded=0;fontSize=12;startSize=8;endSize=8;curved=1;exitX=1;exitY=0;exitDx=0;exitDy=0;exitPerimeter=0;entryX=0;entryY=0.5;entryDx=0;entryDy=0;entryPerimeter=0;" parent="Ruf-5wRdIl-tEysAjk05-2260" source="Ruf-5wRdIl-tEysAjk05-2262" target="Ruf-5wRdIl-tEysAjk05-2261" edge="1">
          <mxGeometry width="50" height="50" relative="1" as="geometry">
            <mxPoint x="500" y="380" as="sourcePoint" />
            <mxPoint x="550" y="330" as="targetPoint" />
          </mxGeometry>
        </mxCell>
        <mxCell id="Ruf-5wRdIl-tEysAjk05-2314" value="" style="endArrow=none;dashed=1;html=1;rounded=0;fontSize=12;startSize=8;endSize=8;curved=1;exitX=1;exitY=0.5;exitDx=0;exitDy=0;exitPerimeter=0;entryX=0.015;entryY=0.015;entryDx=0;entryDy=0;entryPerimeter=0;" parent="Ruf-5wRdIl-tEysAjk05-2260" source="Ruf-5wRdIl-tEysAjk05-2262" target="Ruf-5wRdIl-tEysAjk05-2313" edge="1">
          <mxGeometry width="50" height="50" relative="1" as="geometry">
            <mxPoint x="490" y="310" as="sourcePoint" />
            <mxPoint x="540" y="260" as="targetPoint" />
          </mxGeometry>
        </mxCell>
        <mxCell id="Ruf-5wRdIl-tEysAjk05-2362" value="IDPS" style="image;points=[];aspect=fixed;html=1;align=center;shadow=0;dashed=0;image=img/lib/allied_telesis/security/Router_VPN.svg;" parent="Ruf-5wRdIl-tEysAjk05-2260" vertex="1">
          <mxGeometry x="365.6" y="170" width="55.800000000000004" height="39.6" as="geometry" />
        </mxCell>
        <mxCell id="Ruf-5wRdIl-tEysAjk05-2363" value="" style="endArrow=none;html=1;rounded=0;fontSize=12;startSize=8;endSize=8;curved=1;entryX=0.96;entryY=0.7;entryDx=0;entryDy=0;entryPerimeter=0;exitX=0;exitY=0.5;exitDx=0;exitDy=0;exitPerimeter=0;" parent="Ruf-5wRdIl-tEysAjk05-2260" source="Ruf-5wRdIl-tEysAjk05-2261" target="Ruf-5wRdIl-tEysAjk05-2362" edge="1">
          <mxGeometry width="50" height="50" relative="1" as="geometry">
            <mxPoint x="490" y="-43" as="sourcePoint" />
            <mxPoint x="337" y="-114" as="targetPoint" />
          </mxGeometry>
        </mxCell>
        <mxCell id="Ruf-5wRdIl-tEysAjk05-2364" value="Antivirus/malware deployed across servers routers and devices" style="text;html=1;align=center;verticalAlign=middle;whiteSpace=wrap;rounded=0;fontSize=16;" parent="Ruf-5wRdIl-tEysAjk05-2260" vertex="1">
          <mxGeometry x="60" y="450" width="60" height="30" as="geometry" />
        </mxCell>
        <mxCell id="jAVi-AluYZ_63kVKPEiI-2" value="" style="endArrow=classic;startArrow=classic;html=1;rounded=0;fontSize=12;startSize=8;endSize=8;curved=1;entryX=0.5;entryY=1;entryDx=0;entryDy=0;" parent="Ruf-5wRdIl-tEysAjk05-2260" source="Ruf-5wRdIl-tEysAjk05-2301" target="jAVi-AluYZ_63kVKPEiI-1" edge="1">
          <mxGeometry width="50" height="50" relative="1" as="geometry">
            <mxPoint x="582" y="50" as="sourcePoint" />
            <mxPoint x="682" y="317" as="targetPoint" />
          </mxGeometry>
        </mxCell>
        <mxCell id="jAVi-AluYZ_63kVKPEiI-4" value="" style="endArrow=classic;startArrow=classic;html=1;rounded=0;fontSize=12;startSize=8;endSize=8;curved=1;entryX=0.5;entryY=1;entryDx=0;entryDy=0;exitX=0;exitY=0.5;exitDx=0;exitDy=0;exitPerimeter=0;" parent="Ruf-5wRdIl-tEysAjk05-2260" source="Ruf-5wRdIl-tEysAjk05-2301" target="jAVi-AluYZ_63kVKPEiI-3" edge="1">
          <mxGeometry width="50" height="50" relative="1" as="geometry">
            <mxPoint x="456" y="130" as="sourcePoint" />
            <mxPoint x="556" y="397" as="targetPoint" />
          </mxGeometry>
        </mxCell>
        <mxCell id="jAVi-AluYZ_63kVKPEiI-8" value="" style="endArrow=classic;startArrow=classic;html=1;rounded=0;fontSize=12;startSize=8;endSize=8;curved=1;entryX=0.5;entryY=1;entryDx=0;entryDy=0;exitX=1;exitY=0.5;exitDx=0;exitDy=0;exitPerimeter=0;" parent="Ruf-5wRdIl-tEysAjk05-2260" source="Ruf-5wRdIl-tEysAjk05-2270" target="jAVi-AluYZ_63kVKPEiI-7" edge="1">
          <mxGeometry width="50" height="50" relative="1" as="geometry">
            <mxPoint x="912" y="97" as="sourcePoint" />
            <mxPoint x="1012" y="364" as="targetPoint" />
          </mxGeometry>
        </mxCell>
        <mxCell id="I4FsKrgE2dASxy1mWW6w-1" value="Wifi switch" style="shape=mxgraph.cisco.switches.atm_fast_gigabit_etherswitch;sketch=0;html=1;pointerEvents=1;dashed=0;fillColor=#036897;strokeColor=#ffffff;strokeWidth=2;verticalLabelPosition=bottom;verticalAlign=top;align=center;outlineConnect=0;" parent="Ruf-5wRdIl-tEysAjk05-2260" vertex="1">
          <mxGeometry x="599" y="30" width="64" height="64" as="geometry" />
        </mxCell>
        <mxCell id="jAVi-AluYZ_63kVKPEiI-10" value="" style="endArrow=classic;startArrow=classic;html=1;rounded=0;entryX=0.5;entryY=1;entryDx=0;entryDy=0;entryPerimeter=0;exitX=0.88;exitY=0.1;exitDx=0;exitDy=0;exitPerimeter=0;" parent="Ruf-5wRdIl-tEysAjk05-2260" source="I4FsKrgE2dASxy1mWW6w-2" target="I4FsKrgE2dASxy1mWW6w-1" edge="1">
          <mxGeometry width="50" height="50" relative="1" as="geometry">
            <mxPoint x="530" y="270" as="sourcePoint" />
            <mxPoint x="551.1020408163265" y="223" as="targetPoint" />
          </mxGeometry>
        </mxCell>
        <mxCell id="I4FsKrgE2dASxy1mWW6w-3" value="" style="endArrow=none;dashed=1;html=1;dashPattern=1 3;strokeWidth=2;rounded=0;entryX=0;entryY=0.5;entryDx=0;entryDy=0;entryPerimeter=0;exitX=0.985;exitY=0.015;exitDx=0;exitDy=0;exitPerimeter=0;" parent="Ruf-5wRdIl-tEysAjk05-2260" source="Ruf-5wRdIl-tEysAjk05-2313" target="I4FsKrgE2dASxy1mWW6w-2" edge="1">
          <mxGeometry width="50" height="50" relative="1" as="geometry">
            <mxPoint x="349" y="-9" as="sourcePoint" />
            <mxPoint x="534" y="-103.5" as="targetPoint" />
          </mxGeometry>
        </mxCell>
        <mxCell id="I4FsKrgE2dASxy1mWW6w-4" value="" style="endArrow=classic;startArrow=classic;html=1;rounded=0;entryX=0;entryY=1;entryDx=0;entryDy=0;entryPerimeter=0;exitX=0.88;exitY=0.1;exitDx=0;exitDy=0;exitPerimeter=0;" parent="Ruf-5wRdIl-tEysAjk05-2260" source="Ruf-5wRdIl-tEysAjk05-2261" target="I4FsKrgE2dASxy1mWW6w-2" edge="1">
          <mxGeometry width="50" height="50" relative="1" as="geometry">
            <mxPoint x="525" y="-56" as="sourcePoint" />
            <mxPoint x="609" y="-165" as="targetPoint" />
          </mxGeometry>
        </mxCell>
        <mxCell id="I4FsKrgE2dASxy1mWW6w-2" value="UTM Firewall with ACL,&lt;div&gt;antivirus + web filtering&lt;/div&gt;" style="image;html=1;image=img/lib/clip_art/networking/Firewall_02_128x128.png" parent="Ruf-5wRdIl-tEysAjk05-2260" vertex="1">
          <mxGeometry x="570" y="140" width="80" height="80" as="geometry" />
        </mxCell>
        <mxCell id="I4FsKrgE2dASxy1mWW6w-5" value="All cabling between switches&amp;nbsp;&lt;div&gt;and devices will&amp;nbsp;&lt;div&gt;be ethernet&lt;/div&gt;&lt;/div&gt;" style="text;html=1;align=center;verticalAlign=middle;resizable=0;points=[];autosize=1;strokeColor=none;fillColor=none;" parent="Ruf-5wRdIl-tEysAjk05-2260" vertex="1">
          <mxGeometry x="170" y="435" width="180" height="60" as="geometry" />
        </mxCell>
        <mxCell id="eKiNkDySMWKCnOwZtBc8-2" value="" style="endArrow=classic;startArrow=classic;html=1;rounded=0;fontSize=12;startSize=8;endSize=8;curved=1;exitX=1;exitY=0.5;exitDx=0;exitDy=0;exitPerimeter=0;entryX=0;entryY=0.5;entryDx=0;entryDy=0;entryPerimeter=0;" edge="1" parent="Ruf-5wRdIl-tEysAjk05-2260" source="Ruf-5wRdIl-tEysAjk05-2266" target="eKiNkDySMWKCnOwZtBc8-1">
          <mxGeometry width="50" height="50" relative="1" as="geometry">
            <mxPoint x="534" y="276" as="sourcePoint" />
            <mxPoint x="780" y="268" as="targetPoint" />
          </mxGeometry>
        </mxCell>
      </root>
    </mxGraphModel>
  </diagram>
</mxfile>
